<svg width="108" height="34" viewBox="0 0 108 34" fill="none" xmlns="http://www.w3.org/2000/svg">
<g clip-path="url(#clip0_102_35)">
<path fill-rule="evenodd" clip-rule="evenodd" d="M66.2083 27C60.1033 30.25 50.1429 32 42.5242 32C31.8417 32 22.3763 28.7462 15.1006 24C14.529 23.6268 15.6612 23.7093 16.3472 24C24.199 27.2995 33.7422 29 43.7708 29C50.5342 29 58.1205 28.0973 64.9617 26C65.9952 25.6829 67.2189 26.4583 66.2083 27Z" fill="#79797A" fill-opacity="0.45"/>
<path fill-rule="evenodd" clip-rule="evenodd" d="M68.7013 25C67.9239 24.28 63.1885 24.8315 61.2222 25C60.6231 25.0528 60.6825 24.2708 61.2222 24C64.7113 22.2264 70.5267 23.4055 71.1944 24C71.862 24.5978 70.7336 28.0216 67.4548 30C66.9518 30.3038 65.9842 30.4029 66.2083 30C66.9445 28.6722 69.4833 25.7233 68.7013 25Z" fill="#79797A" fill-opacity="0.45"/>
<path fill-rule="evenodd" clip-rule="evenodd" d="M62.4688 12V10C62.4688 9.73126 62.1329 9 62.4688 9H73.6876C74.0376 9 73.6876 9.73466 73.6876 10V11C73.6829 11.2551 74.2102 11.4727 73.6876 12L67.455 18C69.5548 17.9626 71.7838 18.2176 73.6876 19C74.1169 19.1769 74.9015 19.7449 74.9341 20V22C74.9341 22.2585 74.0982 22.1565 73.6876 22C70.3326 20.7175 66.1785 20.5645 62.4688 22C62.0909 22.1497 61.2223 22.2585 61.2223 22V20C61.2223 19.7109 62.0722 19.4388 62.4688 19L68.7015 12H62.4688C62.1189 12 62.4688 12.2653 62.4688 12Z" fill="#79797A" fill-opacity="0.45"/>
<path fill-rule="evenodd" clip-rule="evenodd" d="M22.58 23H18.8404C18.5231 22.983 18.8637 22.2211 18.8404 22V10C18.8404 9.75167 18.4857 9 18.8404 9H22.58C22.9019 9.0102 22.5566 9.77548 22.58 10V11V11C23.3872 9.43179 25.5223 9 27.5661 9C29.6425 9 30.3724 9.43179 31.3057 11C32.1082 9.43179 34.3366 9 36.2918 9C37.6823 9 39.1028 9.06111 40.0313 10C41.0813 11.0443 41.2779 12.6699 41.2779 14V22C41.2779 22.2483 40.386 23 40.0313 23H36.2918C35.9605 22.983 36.2918 22.2381 36.2918 22V16C36.2918 15.4761 36.4504 13.4967 36.2918 13C36.0445 12.1666 34.76 12 33.7987 12C32.9961 12 32.8928 12.3741 32.5522 13C32.2115 13.6259 31.3057 15.2958 31.3057 16V22C31.3057 22.2483 31.6603 23 31.3057 23H27.5661C27.2301 22.983 27.5661 22.2381 27.5661 22V16C27.5661 14.6155 27.4295 12 25.073 12C22.6886 12 22.58 14.5645 22.58 16V22C22.58 22.2483 22.9346 23 22.58 23Z" fill="#79797A" fill-opacity="0.45"/>
<path fill-rule="evenodd" clip-rule="evenodd" d="M83.6598 9C88.5827 9 91.139 12.0812 91.139 16C91.139 19.7862 88.3027 23 83.6598 23C78.8256 23 76.1806 19.8406 76.1806 16C76.1806 12.1356 78.8582 9 83.6598 9ZM83.6598 12C81.2147 12 81.1668 14.4862 81.1668 16C81.1668 17.5172 81.056 20 83.6598 20C86.2309 20 86.1529 17.592 86.1529 16C86.1529 14.9523 86.5868 13.9933 86.1529 13C85.7796 12.136 84.7144 12 83.6598 12Z" fill="#79797A" fill-opacity="0.45"/>
<path fill-rule="evenodd" clip-rule="evenodd" d="M97.3716 23H94.8786C94.5473 22.983 93.632 22.2381 93.632 22V10C93.66 9.77208 94.5426 9 94.8786 9H97.3716C97.6609 9.0102 98.5528 9.8061 98.6181 10V12V12C99.5467 10.3025 100.067 9 102.358 9C103.846 9 105.164 9.92845 106.097 11C106.965 11.9933 107.344 12.7992 107.344 14V22C107.307 22.2177 106.424 23 106.097 23H103.604C103.301 22.983 102.39 22.2109 102.358 22V16C102.358 14.6427 103.402 12 101.111 12C100.304 12 98.9868 12.4013 98.6181 13C98.1515 13.7586 98.6181 15.1632 98.6181 16V22C98.6135 22.2483 97.7262 23 97.3716 23Z" fill="#79797A" fill-opacity="0.45"/>
<path fill-rule="evenodd" clip-rule="evenodd" d="M53.7432 17C53.7432 17.9423 53.1499 18.1632 52.4966 19C51.9693 19.6804 50.9321 20 50.0036 20C48.7297 20 48.757 20.0443 48.757 19C48.757 16.9385 51.34 16 53.7432 16V17ZM56.2362 23C56.0169 23.1429 56.4835 23.0952 56.2362 23C55.135 22.3333 54.3451 21.6361 53.7432 21C51.9233 22.3539 51.1135 23 48.757 23C45.962 23 43.7709 21.5139 43.7709 19C43.7709 17.0372 45.4294 15.6531 47.5105 15C49.3117 14.4217 51.8207 14.1599 53.7432 14V14C53.7432 13.4251 52.9632 12.4967 52.4966 12C52.0953 11.5544 51.936 12 51.2501 12C49.9855 12 49.0324 12.0203 48.757 13C48.701 13.2177 47.8138 12.9898 47.5105 13H45.0175C44.7468 12.9558 43.6916 13.3028 43.7709 13C44.5082 10.1561 48.0957 9 51.2501 9C52.8646 9 54.9623 9.10874 56.2362 10C57.8507 11.0988 57.4827 12.4046 57.4827 14V18C57.4827 19.1328 58.1227 19.3877 58.7293 20C58.9392 20.2177 58.9999 20.8367 58.7293 21C58.0527 21.4116 56.8988 22.5714 56.2362 23V23Z" fill="#79797A" fill-opacity="0.45"/>
<path fill-rule="evenodd" clip-rule="evenodd" d="M10.1147 17C10.1147 17.9423 9.52142 18.1632 8.86815 19C8.34087 19.6804 8.55487 20 7.62163 20C6.34774 20 5.12857 20.0443 5.12857 19C5.12857 16.9385 7.71623 16 10.1147 16V17ZM13.8543 23C13.635 23.1429 12.855 23.0952 12.6077 23C11.5065 22.3333 10.7213 21.6361 10.1147 21C8.29485 22.3539 7.48969 23 5.12857 23C2.33816 23 0.14246 21.5139 0.14246 19C0.14246 17.0372 1.80557 15.6531 3.88204 15C5.68321 14.4217 8.19219 14.1599 10.1147 14V14C10.1147 13.4251 10.5766 12.4967 10.1147 12C9.70872 11.5544 8.3029 12 7.62163 12C6.35708 12 5.40388 12.0203 5.12857 13C5.07257 13.2177 4.18068 12.9898 3.88204 13H1.38899C1.11835 12.9558 0.0678 13.3028 0.14246 13C0.884392 10.1561 4.46725 9 7.62163 9C9.23614 9 11.3339 9.10874 12.6077 10C14.2223 11.0988 15.1008 12.4046 15.1008 14V18C15.1008 19.1328 15.7407 19.3877 16.3473 20C16.562 20.2177 16.618 20.8367 16.3473 21C15.6707 21.4116 14.5169 22.5714 13.8543 23V23Z" fill="#79797A" fill-opacity="0.45"/>
</g>
<defs>
<clipPath id="clip0_102_35">
<rect width="107.201" height="34" fill="white" transform="translate(0.142334)"/>
</clipPath>
</defs>
</svg>
