<svg width="86" height="34" viewBox="0 0 86 34" fill="none" xmlns="http://www.w3.org/2000/svg">
<g clip-path="url(#clip0_102_34)">
<path d="M45.3831 9.95213C45.3831 10.9731 44.6029 11.7956 43.6344 11.7956C42.666 11.7956 41.8858 10.9731 41.8858 9.95213C41.8858 8.93111 42.6391 8.10862 43.6344 8.10862C44.6298 8.13698 45.3831 8.95947 45.3831 9.95213ZM38.1733 13.6675C38.1733 13.8377 38.1733 14.1213 38.1733 14.1213C38.1733 14.1213 37.3394 12.9868 35.5639 12.9868C32.6316 12.9868 30.3449 15.3408 30.3449 18.6024C30.3449 21.8357 32.6047 24.2181 35.5639 24.2181C37.3663 24.2181 38.1733 23.0552 38.1733 23.0552V23.5374C38.1733 23.7643 38.3348 23.9344 38.55 23.9344H40.729V13.2704C40.729 13.2704 38.7383 13.2704 38.55 13.2704C38.3348 13.2704 38.1733 13.469 38.1733 13.6675ZM38.1733 20.5027C37.7698 21.1266 36.9628 21.6655 35.9943 21.6655C34.2726 21.6655 32.9544 20.531 32.9544 18.6024C32.9544 16.6738 34.2726 15.5394 35.9943 15.5394C36.9359 15.5394 37.7967 16.1066 38.1733 16.7022V20.5027ZM42.3431 13.2704H44.9257V23.9344H42.3431V13.2704ZM80.9205 12.9868C79.1449 12.9868 78.311 14.1213 78.311 14.1213V8.13698H75.7284V23.9344C75.7284 23.9344 77.7191 23.9344 77.9074 23.9344C78.1227 23.9344 78.2841 23.7359 78.2841 23.5374V23.0552C78.2841 23.0552 79.118 24.2181 80.8936 24.2181C83.8259 24.2181 86.1125 21.8357 86.1125 18.6024C86.1125 15.3692 83.8259 12.9868 80.9205 12.9868ZM80.49 21.6371C79.4947 21.6371 78.7145 21.0983 78.311 20.4743V16.6738C78.7145 16.1066 79.5754 15.511 80.49 15.511C82.2117 15.511 83.5299 16.6455 83.5299 18.5741C83.5299 20.5027 82.2117 21.6371 80.49 21.6371ZM74.3833 17.6098V23.9628H71.8007V17.9218C71.8007 16.1633 71.2627 15.4543 69.81 15.4543C69.0298 15.4543 68.2228 15.8797 67.7116 16.5037V23.9344H65.129V13.2704H67.1736C67.3888 13.2704 67.5502 13.469 67.5502 13.6675V14.1213C68.3035 13.2988 69.2988 12.9868 70.2942 12.9868C71.4241 12.9868 72.3656 13.3272 73.1189 14.0079C74.0336 14.802 74.3833 15.823 74.3833 17.6098ZM58.8609 12.9868C57.0854 12.9868 56.2514 14.1213 56.2514 14.1213V8.13698H53.6688V23.9344C53.6688 23.9344 55.6596 23.9344 55.8479 23.9344C56.0631 23.9344 56.2245 23.7359 56.2245 23.5374V23.0552C56.2245 23.0552 57.0585 24.2181 58.834 24.2181C61.7663 24.2181 64.053 21.8357 64.053 18.6024C64.0799 15.3692 61.7932 12.9868 58.8609 12.9868ZM58.4305 21.6371C57.4351 21.6371 56.6549 21.0983 56.2514 20.4743V16.6738C56.6549 16.1066 57.5158 15.511 58.4305 15.511C60.1522 15.511 61.4704 16.6455 61.4704 18.5741C61.4704 20.5027 60.1522 21.6371 58.4305 21.6371ZM51.436 12.9868C52.2161 12.9868 52.6197 13.1286 52.6197 13.1286V15.6528C52.6197 15.6528 50.4675 14.8871 49.1224 16.5037V23.9628H46.5398V13.2704C46.5398 13.2704 48.5306 13.2704 48.7189 13.2704C48.9341 13.2704 49.0955 13.469 49.0955 13.6675V14.1213C49.5797 13.5257 50.6289 12.9868 51.436 12.9868ZM24.6148 22.9701C24.4803 22.6298 24.3458 22.2611 24.2113 21.9491C23.996 21.4386 23.7808 20.9565 23.5925 20.5027L23.5656 20.4743C21.7094 16.2201 19.7186 11.9091 17.6203 7.65483L17.5396 7.48466C17.3244 7.05924 17.1092 6.60545 16.8939 6.15166C16.6249 5.64115 16.3559 5.10228 15.9255 4.59177C15.0646 3.4573 13.8271 2.83334 12.5089 2.83334C11.1638 2.83334 9.95326 3.4573 9.0655 4.53505C8.66197 5.04556 8.36605 5.58443 8.09703 6.09494C7.88181 6.54873 7.6666 7.00251 7.45138 7.42794L7.37068 7.59811C5.29923 11.8524 3.28159 16.1633 1.42536 20.4176L1.39845 20.4743C1.21014 20.9281 0.994926 21.4103 0.779711 21.9208C0.645202 22.2327 0.510692 22.5731 0.376183 22.9418C0.0264582 23.9912 -0.0811494 24.9838 0.0533601 26.0048C0.349281 28.132 1.69438 29.9188 3.55061 30.7129C4.25006 31.0249 4.97641 31.1667 5.72966 31.1667C5.94487 31.1667 6.21389 31.1383 6.42911 31.11C7.31687 30.9965 8.23154 30.6845 9.1193 30.1457C10.2223 29.4933 11.2715 28.5574 12.4551 27.196C13.6388 28.5574 14.7149 29.4933 15.791 30.1457C16.6787 30.6845 17.5934 30.9965 18.4812 31.11C18.6964 31.1383 18.9654 31.1667 19.1806 31.1667C19.9339 31.1667 20.6871 31.0249 21.3597 30.7129C23.2428 29.9188 24.561 28.1036 24.8569 26.0048C25.0721 25.0122 24.9645 24.0195 24.6148 22.9701ZM12.482 24.445C11.0293 22.5164 10.0878 20.7012 9.76494 19.1697C9.63043 18.5174 9.60353 17.9501 9.68424 17.4396C9.73804 16.9858 9.89945 16.5888 10.1147 16.2484C10.6258 15.4827 11.4867 15.0005 12.482 15.0005C13.4774 15.0005 14.3652 15.4543 14.8494 16.2484C15.0646 16.5888 15.226 16.9858 15.2798 17.4396C15.3605 17.9501 15.3336 18.5457 15.1991 19.1697C14.8763 20.6728 13.9347 22.488 12.482 24.445ZM23.2159 25.778C23.0276 27.2528 22.086 28.529 20.7678 29.0963C20.1222 29.3799 19.4227 29.465 18.7233 29.3799C18.0507 29.2948 17.3782 29.0679 16.6787 28.6425C15.7103 28.0753 14.7418 27.196 13.6119 25.8914C15.3874 23.5941 16.4635 21.4953 16.867 19.6235C17.0554 18.7443 17.0823 17.9501 17.0016 17.2127C16.8939 16.5037 16.6518 15.8514 16.2752 15.2841C15.4412 14.0079 14.0423 13.2704 12.482 13.2704C10.9217 13.2704 9.52283 14.0362 8.68887 15.2841C8.31224 15.8514 8.07012 16.5037 7.96252 17.2127C7.85491 17.9501 7.88181 18.7726 8.09703 19.6235C8.50056 21.4953 9.60353 23.6225 11.3522 25.9198C10.2492 27.2244 9.25381 28.1036 8.28534 28.6708C7.58589 29.0963 6.91334 29.3232 6.2408 29.4082C5.51444 29.4933 4.815 29.3799 4.19625 29.1246C2.87806 28.5574 1.93649 27.2811 1.74818 25.8063C1.66747 25.0973 1.72128 24.3882 1.9903 23.5941C2.071 23.3105 2.20551 23.0269 2.34002 22.6865C2.52833 22.2327 2.74355 21.7506 2.95876 21.2684L2.98567 21.2117C4.8419 16.9858 6.83264 12.6749 8.90408 8.47732L8.98479 8.30715C9.20001 7.88172 9.41522 7.42794 9.63043 7.00251C9.84565 6.54873 10.0878 6.1233 10.3837 5.7546C10.9486 5.07392 11.7019 4.70522 12.5358 4.70522C13.3698 4.70522 14.1231 5.07392 14.688 5.7546C14.9839 6.1233 15.226 6.54873 15.4412 7.00251C15.6565 7.42794 15.8717 7.88172 16.0869 8.30715L16.1676 8.47732C18.2121 12.7032 20.2029 17.0142 22.0591 21.2401V21.2684C22.2743 21.7222 22.4626 22.2327 22.6779 22.6865C22.8124 23.0269 22.9469 23.3105 23.0276 23.5941C23.2428 24.3315 23.3235 25.0405 23.2159 25.778Z" fill="#818487" fill-opacity="0.45"/>
</g>
<defs>
<clipPath id="clip0_102_34">
<rect width="86" height="34" fill="white"/>
</clipPath>
</defs>
</svg>
