<svg width="86" height="34" viewBox="0 0 86 34" fill="none" xmlns="http://www.w3.org/2000/svg">
<path d="M26.9549 22.9687L27.9984 20.538C29.1409 21.3813 30.6311 21.8276 32.1216 21.8276C33.2146 21.8276 33.91 21.4061 33.91 20.7614C33.8851 18.9755 27.3276 20.3644 27.2777 15.8746C27.2528 13.5927 29.2898 11.8317 32.1715 11.8317C33.8851 11.8317 35.5993 12.2535 36.8163 13.221L35.8412 15.7034C34.7215 14.9859 33.3386 14.4856 32.0222 14.4856C31.1281 14.4856 30.5317 14.9071 30.5317 15.4531C30.5566 17.2141 37.1643 16.2467 37.2388 20.538C37.2388 22.8696 35.2513 24.5067 32.4195 24.5067C30.3333 24.5067 28.4206 24.0107 26.9546 22.9687H26.9549ZM68.5036 19.6579C68.2402 20.1243 67.8571 20.5125 67.3935 20.7826C66.93 21.0528 66.4026 21.1952 65.8656 21.1952C64.1919 21.1952 62.8353 19.8404 62.8353 18.1692C62.8353 16.498 64.1919 15.1432 65.8656 15.1432C66.4026 15.1432 66.93 15.2856 67.3935 15.5558C67.8571 15.8259 68.2402 16.2141 68.5036 16.6805L71.4046 15.0757C70.318 13.1404 68.2454 11.8317 65.8656 11.8317C62.3605 11.8317 59.519 14.6689 59.519 18.1692C59.519 21.6692 62.3605 24.5067 65.8656 24.5067C68.2454 24.5067 70.318 23.198 71.4046 21.2627L68.5036 19.6579ZM39.1212 24.2585H42.7479V6.55615H39.1216L39.1212 24.2585ZM73.2361 6.55615V24.2585H76.8627V18.9549L81.1601 24.2585H85.7956L80.3308 17.958L85.3981 12.0788H80.9613L76.8627 16.9667V6.55615H73.2361ZM53.9209 12.0795V13.5185C53.3249 12.5262 51.8593 11.8317 50.3192 11.8317C47.1397 11.8317 44.631 14.6348 44.631 18.1568C44.631 21.6788 47.1397 24.5067 50.3192 24.5067C51.8593 24.5067 53.3249 23.8122 53.9209 22.8199V24.2585H57.5475V12.0795H53.9209ZM53.9209 19.6824C53.3994 20.5505 52.3064 21.1949 51.0894 21.1949C49.4154 21.1949 48.0588 19.8404 48.0588 18.1692C48.0588 16.498 49.4154 15.1432 51.0894 15.1432C52.3064 15.1432 53.3994 15.8128 53.9209 16.7054V19.6824Z" fill="#79797A" fill-opacity="0.45"/>
<path d="M7.80283 6.16507C6.62756 6.16507 5.67495 7.11658 5.67495 8.28999C5.67466 8.56876 5.72948 8.84486 5.83627 9.10251C5.94305 9.36017 6.09971 9.59434 6.2973 9.79166C6.49489 9.98898 6.72955 10.1456 6.98786 10.2525C7.24618 10.3595 7.52311 10.4146 7.80283 10.4149H9.93106V8.28999C9.93153 7.72696 9.70759 7.1868 9.30847 6.78831C8.90936 6.38982 8.36777 6.16563 7.80283 6.16507V6.16507ZM7.80283 11.8315H2.12812C0.952856 11.8315 0.000244141 12.783 0.000244141 13.9568C0.000244141 15.1302 0.952856 16.0817 2.12812 16.0817H7.80318C8.97809 16.0817 9.93106 15.1302 9.93106 13.9568C9.93106 12.783 8.97809 11.8315 7.80283 11.8315" fill="#79797A" fill-opacity="0.45"/>
<path d="M21.2804 13.9568C21.2804 12.783 20.3275 11.8315 19.1522 11.8315C17.9769 11.8315 17.0243 12.783 17.0243 13.9568V16.0817H19.1522C19.7171 16.0812 20.2587 15.857 20.6578 15.4585C21.057 15.06 21.2809 14.5198 21.2804 13.9568V13.9568ZM15.6057 13.9568V8.28999C15.6062 7.72696 15.3823 7.1868 14.9831 6.78831C14.584 6.38982 14.0424 6.16563 13.4775 6.16507C12.3022 6.16507 11.3496 7.11658 11.3496 8.28999V13.9565C11.3496 15.1306 12.3022 16.0821 13.4775 16.0821C14.0424 16.0815 14.584 15.8573 14.9831 15.4589C15.3823 15.0604 15.6062 14.5202 15.6057 13.9572" fill="#79797A" fill-opacity="0.45"/>
<path d="M13.4775 27.415C14.0424 27.4145 14.584 27.1903 14.9831 26.7918C15.3823 26.3933 15.6062 25.8532 15.6057 25.2901C15.6062 24.7271 15.3823 24.1869 14.9831 23.7884C14.584 23.3899 14.0424 23.1658 13.4775 23.1652H11.3496V25.2901C11.3496 26.4635 12.3022 27.415 13.4775 27.415ZM13.4775 21.7486H19.1525C20.3275 21.7486 21.2804 20.7971 21.2804 19.6233C21.2809 19.0603 21.057 18.5201 20.6578 18.1216C20.2587 17.7231 19.7171 17.4989 19.1522 17.4984H13.4775C12.3022 17.4984 11.3496 18.4499 11.3496 19.6233C11.3493 19.9021 11.4041 20.1782 11.5109 20.4358C11.6177 20.6935 11.7744 20.9277 11.972 21.125C12.1696 21.3223 12.4042 21.4789 12.6625 21.5858C12.9208 21.6928 13.1978 21.748 13.4775 21.7482" fill="#79797A" fill-opacity="0.45"/>
<path d="M1.07368e-06 19.6233C-0.000279767 19.9021 0.0545367 20.1782 0.161321 20.4358C0.268105 20.6935 0.424765 20.9277 0.622357 21.125C0.819949 21.3223 1.0546 21.4789 1.31292 21.5858C1.57124 21.6928 1.84816 21.748 2.12788 21.7482C2.69283 21.7477 3.23442 21.5235 3.63353 21.125C4.03264 20.7265 4.25659 20.1863 4.25612 19.6233V17.4984H2.12788C0.952613 17.4984 1.07368e-06 18.4499 1.07368e-06 19.6233V19.6233ZM5.6747 19.6233V25.2898C5.6747 26.4635 6.62731 27.415 7.80258 27.415C8.36753 27.4145 8.90912 27.1903 9.30823 26.7918C9.70734 26.3933 9.93129 25.8532 9.93082 25.2901V19.6233C9.9311 19.3445 9.87627 19.0684 9.76946 18.8107C9.66266 18.553 9.50597 18.3188 9.30834 18.1215C9.11071 17.9242 8.87601 17.7676 8.61765 17.6607C8.35929 17.5538 8.08233 17.4986 7.80258 17.4984C6.62731 17.4984 5.6747 18.4499 5.6747 19.6233Z" fill="#79797A" fill-opacity="0.45"/>
</svg>
