<svg width="108" height="34" viewBox="0 0 108 34" fill="none" xmlns="http://www.w3.org/2000/svg">
<g clip-path="url(#clip0_102_38)">
<path d="M7.74992 22H0.270752V25H7.74992V22Z" fill="#79797A" fill-opacity="0.45"/>
<path d="M18.9687 22H11.4895V25H18.9687V22Z" fill="#79797A" fill-opacity="0.45"/>
<path d="M18.9687 17H0.270752V20H18.9687V17Z" fill="#79797A" fill-opacity="0.45"/>
<path d="M11.4895 12H0.270752V15H11.4895V12Z" fill="#79797A" fill-opacity="0.45"/>
<path d="M18.9687 12H15.2291V15H18.9687V12Z" fill="#79797A" fill-opacity="0.45"/>
<path d="M71.3228 12C65.5111 12 62.5971 14.5856 62.5971 18C62.5971 21.4145 65.4371 25 71.3228 25C77.2085 25 80.0485 21.4145 80.0485 18C80.0488 14.5856 77.1343 12 71.3228 12ZM75.0624 18C75.0583 20.1956 74.617 22 71.3228 22C68.0286 22 66.3401 20.1958 66.3367 18V18C66.3401 15.8045 68.0286 14 71.3228 14C74.6168 14 75.0583 15.8045 75.0624 18V18C75.0624 18.0019 75.0624 17.9982 75.0624 18Z" fill="#79797A" fill-opacity="0.45"/>
<path d="M45.1457 25V7.00001C45.1457 7.00001 48.6258 7.02353 48.8853 7.00001C49.1794 6.97326 48.8853 6.72127 48.8853 7.00001V14C49.58 13.5552 50.5447 13.2732 51.3784 13C52.2128 12.7271 52.7474 12 53.8714 12C54.8446 12 56.8581 12.7775 57.611 13C58.3644 13.222 58.3537 13.5986 58.8576 14C59.3614 14.4021 59.8434 14.4422 60.1041 15C60.3646 15.5578 60.1041 16.3291 60.1041 17V25H56.3645V17C56.3645 16.2668 55.6218 15.4021 55.118 15C54.6139 14.5984 53.633 15 52.6249 15C51.8837 15 52.0267 14.7735 51.3784 15C50.7294 15.2263 49.4645 15.6097 48.8853 16V25H45.1457Z" fill="#79797A" fill-opacity="0.45"/>
<path d="M102.486 25C99.5327 25 97.4999 23.1595 97.4999 21V15H93.7603C93.7603 15 94.9509 13.1298 95.0069 13C95.063 12.8704 94.713 13.0275 95.0069 13C95.3007 12.9725 97.4999 13 97.4999 13L98.7464 9.00001C98.7464 9.00001 100.858 9.03829 101.239 9.00001C101.599 8.96373 101.239 8.73603 101.239 9.00001V13H106.226V15H101.239V21C101.239 21.8621 102.986 22 103.733 22C104.189 22 104.512 22.1458 104.979 22C105.267 21.9102 104.864 21.729 104.979 22C105.081 22.2402 106.226 24 106.226 24C105.757 24.2036 104.588 25 102.486 25Z" fill="#79797A" fill-opacity="0.45"/>
<path d="M91.2673 15C90.4308 14.8171 89.0232 14 87.5277 14C86.0039 14 85.0346 15.1467 85.0346 16C85.0346 17.0658 88.252 17.5655 90.0207 18C91.2033 18.2904 93.7603 18.7031 93.7603 21C93.7603 23.7902 89.9513 25 86.2812 25C82.6105 25 81.2951 24 81.2951 24C81.2951 24 81.1798 22.2674 81.2951 22C81.3994 21.7594 82.277 21.9316 82.5416 22C83.4862 22.2452 84.353 22 86.2812 22C88.2332 22 90.0207 21.8558 90.0207 21C90.0207 19.8611 86.7781 19.3704 85.0346 19C83.8336 18.7451 81.2951 18.5262 81.2951 16C81.2951 13.5115 84.06 12 87.5277 12C90.463 12 92.6849 12.631 93.7603 13C93.7603 13 92.6028 14.7905 92.5138 15C92.4088 15.2491 91.6476 15.083 91.2673 15Z" fill="#79797A" fill-opacity="0.45"/>
<path d="M42.6527 13C42.6527 12.7308 42.9785 11.975 42.6527 12C41.2124 12.1112 39.5779 12.5751 38.9131 13C37.6078 12.3112 35.9606 12 33.927 12C29.8498 12 26.4478 14.1102 26.4478 17C26.4478 18.6589 28.5223 19.3271 30.1874 20C28.9508 20.3942 27.6944 21.1776 27.6944 22C27.6944 23.3757 28.9409 24 28.9409 24C28.9409 24 26.4478 25.1548 26.4478 27C26.4478 29.3621 29.9829 30 33.927 30C39.6123 30 42.6527 27.9038 42.6527 25C42.6527 23.2129 40.8452 23.1173 36.4201 23C33.7941 22.9302 31.8554 22.0939 31.4339 22C30.8772 21.8755 31.4339 22.3315 31.4339 22C31.4339 21.6341 31.9769 21.2392 32.6805 21C33.2941 21.0732 33.2545 21 33.927 21C38.0076 21 41.4062 19.8936 41.4062 17C41.4062 16.2983 41.7481 15.5204 41.4062 15C42.0056 14.7846 41.772 14 42.6527 14C42.6527 14 42.6527 13.2455 42.6527 13ZM31.4339 25C31.4339 25 34.2805 24.9333 36.4201 25C38.8237 25.0749 38.9131 25.1618 38.9131 26C38.9131 27.0241 36.8461 28 33.927 28C31.1561 28 30.1874 27.081 30.1874 26C30.1874 25.3798 30.1905 25.3592 31.4339 25ZM33.927 19C31.9955 19 31.4339 18.5072 31.4339 17C31.4339 15.4927 31.9968 14 33.927 14C35.8574 14 37.6666 15.4909 37.6666 17C37.6666 18.5092 35.8592 19 33.927 19Z" fill="#79797A" fill-opacity="0.45"/>
</g>
<defs>
<clipPath id="clip0_102_38">
<rect width="107.201" height="34" fill="white" transform="translate(0.270752)"/>
</clipPath>
</defs>
</svg>
